<svg xmlns="http://www.w3.org/2000/svg" width="12.891" height="12.891" viewBox="0 0 12.891 12.891"><defs><style>.a{fill:none;stroke:#9d217d;stroke-linecap:round;stroke-linejoin:round;stroke-width:0.5px;}</style></defs><g transform="translate(0.25 0.25)"><path class="a" d="M254.012,4516.322a.833.833,0,0,0,.062-1.174l-.834-.835a.834.834,0,0,0-1.175.062l-.509.51a1.283,1.283,0,0,0-.239,1.576,16.515,16.515,0,0,0,5.115,5.113,1.282,1.282,0,0,0,1.576-.237l.509-.51a.832.832,0,0,0,.061-1.173l-.834-.835a.833.833,0,0,0-1.175.062l-.309.308a16.823,16.823,0,0,1-2.556-2.556Z" transform="translate(-248.772 -4511.729)"/><path class="a" d="M249.471,4512.427c.269.27.841,2.963-3.232,2.963a6.193,6.193,0,1,1,5.112-2.693" transform="translate(-240.043 -4503)"/></g></svg>