<svg xmlns="http://www.w3.org/2000/svg" xmlns:xlink="http://www.w3.org/1999/xlink" width="88" height="62.278" viewBox="0 0 88 62.278">
  <defs>
    <linearGradient id="linear-gradient" x1="0.053" y1="0.903" x2="0.613" y2="0.397" gradientUnits="objectBoundingBox">
      <stop offset="0" stop-color="#9e227e"/>
      <stop offset="1" stop-color="#db2576"/>
    </linearGradient>
    <linearGradient id="linear-gradient-2" x1="-0.231" y1="1.052" x2="0.609" y2="0.375" xlink:href="#linear-gradient"/>
    <linearGradient id="linear-gradient-3" x1="-0.27" y1="1.268" x2="0.692" y2="0.242" xlink:href="#linear-gradient"/>
  </defs>
  <g id="Group_105204" data-name="Group 105204" transform="translate(-3990.999 -8278.058)">
    <g id="Group_1" data-name="Group 1" transform="translate(4019 8278.059)">
      <path id="Path_1" data-name="Path 1" d="M-2360.045-157.235c.772-.455,1.441-.828,2.087-1.237a.9.9,0,0,1,1.046.011q7.314,4.26,14.647,8.488a.754.754,0,0,1,.459.767q-.021,8.486,0,16.972a.824.824,0,0,1-.5.831q-7.317,4.2-14.6,8.448a.877.877,0,0,1-1.034.02c-4.875-2.846-9.765-5.666-14.639-8.512a.981.981,0,0,1-.46-.674c-.023-5.779-.016-11.557-.013-17.336a1.5,1.5,0,0,1,.059-.238c.82.469,1.634.9,2.4,1.4.146.1.144.479.144.729.008,4.54.021,9.081-.012,13.621a1.189,1.189,0,0,0,.706,1.186c3.984,2.283,7.954,4.589,11.94,6.867a.87.87,0,0,0,.73.014c4.009-2.288,8-4.6,12.007-6.9a1.141,1.141,0,0,0,.671-1.137q-.045-6.81,0-13.621a1.056,1.056,0,0,0-.621-1.072c-3.947-2.254-7.875-4.541-11.811-6.815C-2357.882-156.013-2358.92-156.6-2360.045-157.235Z" transform="translate(2373.064 158.635)" fill="url(#linear-gradient)"/>
      <path id="Path_2" data-name="Path 2" d="M-2334.575-136.51c.342-.2.6-.373.876-.522.579-.317,1.167-.877,1.742-.864s1.167.585,1.745.92q6.55,3.792,13.1,7.58a1.267,1.267,0,0,1,.748,1.282c-.045,3.447-.033,6.894-.009,10.341a1.073,1.073,0,0,1-.622,1.114c-3.123,1.767-6.222,3.576-9.319,5.389a.812.812,0,0,1-.946-.018c-3.2-1.867-6.414-3.713-9.614-5.582a.667.667,0,0,1-.284-.484c-.016-3.834-.012-7.669-.012-11.638.869.5,1.674.941,2.443,1.437.136.088.165.413.167.629.011,2.6-.007,5.2.026,7.792a1.173,1.173,0,0,0,.426.869c2.2,1.313,4.432,2.562,6.635,3.865a1.151,1.151,0,0,0,1.345.035c2.222-1.315,4.473-2.582,6.693-3.9a1.015,1.015,0,0,0,.417-.734c.03-2.694.024-5.389.005-8.083a.76.76,0,0,0-.3-.559q-5.509-3.229-11.038-6.421Z" transform="translate(2342.399 140.919)" fill="url(#linear-gradient-2)"/>
      <path id="Path_3" data-name="Path 3" d="M-2355.138-115.191a8.042,8.042,0,0,0,1.3-.778c.9-.809,1.679-.494,2.581.039q6.789,4.017,13.632,7.944a1.08,1.08,0,0,1,.67,1.106c-.046,1.552,0,3.106-.03,4.659a.838.838,0,0,1-.3.619c-1.6.959-3.215,1.884-4.839,2.825-1.6-.925-3.2-1.836-4.777-2.78a.839.839,0,0,1-.351-.6c-.027-1.771-.016-3.542-.016-5.481.89.512,1.708.959,2.492,1.459.117.074.1.4.1.606.035.793-.191,1.728.155,2.34.326.577,1.23.857,1.92,1.182a2.332,2.332,0,0,0,.969.009c.039,0,.072-.071.114-.084,1.831-.53,2.215-1.86,1.92-3.538a1.026,1.026,0,0,0-.376-.653c-3.75-2.209-7.515-4.394-11.275-6.586C-2352.525-113.651-2353.8-114.405-2355.138-115.191Z" transform="translate(2357.75 122.606)" fill="url(#linear-gradient-3)"/>
    </g>
    <g id="Group_104483" data-name="Group 104483" transform="translate(70 -50)">
      <g id="Group_2" data-name="Group 2" transform="translate(3920.999 8369.116)">
        <path id="Path_4" data-name="Path 4" d="M-2261.783,152.764h-2.23V139.279h2.181v5.075c1.378-1.162,2.7-1.81,4.361-1.224a2.533,2.533,0,0,1,1.836,2.247c.128,2.438.041,4.887.041,7.381h-2.285c0-1.909-.018-3.813.008-5.716.012-.908-.077-1.7-1.2-1.834-1.462-.169-2.295.259-2.469,1.492-.191,1.351-.18,2.732-.237,4.1C-2261.8,151.411-2261.783,152.024-2261.783,152.764Z" transform="translate(2308.689 -139.267)"/>
        <path id="Path_5" data-name="Path 5" d="M-2185.663,160.9c-.343,1.593,1.554,2.4,5.15,1.386.117.7.231,1.389.342,2.049a8.226,8.226,0,0,1-4.066.58,4.288,4.288,0,0,1-2.92-1.466,5.281,5.281,0,0,1-.758-1.54,6.938,6.938,0,0,1-.283-1.484c-.036-.565-.262-3.52,1.929-4.9a4.743,4.743,0,0,1,4.931.021,4.665,4.665,0,0,1,1.5,4.625,1.352,1.352,0,0,1-1.039.574c-1.526.074-3.055.046-4.584.062C-2185.527,160.813-2185.595,160.872-2185.663,160.9Zm-.053-2.072h3.593c.005-1.409-.417-1.848-1.671-1.874C-2185.24,156.928-2185.667,157.311-2185.716,158.833Z" transform="translate(2250.362 -151.25)"/>
        <path id="Path_6" data-name="Path 6" d="M-2434.945,160.054c.131-3.263,1.8-5.038,4.767-4.973,2.987.066,4.434,1.563,4.385,5.095-.052,3.769-1.916,4.9-4.605,4.987C-2433.334,165.253-2434.96,163.3-2434.945,160.054Zm4.682-2.692c-1.647-.241-2.357.948-2.356,2.7,0,1.9.712,2.846,2.271,2.867s2.309-.949,2.261-2.845C-2428.132,158.231-2428.568,157.215-2430.263,157.362Z" transform="translate(2440.234 -151.426)"/>
        <path id="Path_7" data-name="Path 7" d="M-2138.066,159.038c.337-1.959-1.052-2.523-4.573-1.672-.108-.618-.216-1.232-.338-1.926a7.147,7.147,0,0,1,5.491-.057c1.4.639,1.773,1.994,1.793,3.428.026,1.837.007,3.675.007,5.644a9.664,9.664,0,0,1-6.478.136,2.931,2.931,0,0,1-1.513-3.035,2.933,2.933,0,0,1,2.692-2.509C-2140.036,159.007-2139.085,159.038-2138.066,159.038Zm.047,1.616a9,9,0,0,0-2.255.049,1.729,1.729,0,0,0-1.039,1.1,1.378,1.378,0,0,0,.813,1.088,12.1,12.1,0,0,0,2.48.053Z" transform="translate(2216.111 -151.255)"/>
        <path id="Path_8" data-name="Path 8" d="M-2293.736,155.174a11.616,11.616,0,0,1,.309,1.2c.1.679-.1,1.108-.908,1.081-.521-.017-1.061.2-1.566.126-3.122-.428-3.233-1.364-3.415-3.616-.23-2.849-.055-5.73-.055-8.666h2.4v2.413h3.235v2.317h-3.127c0,1.578-.073,3.058.059,4.518.027.309.779.691,1.247.784A6.786,6.786,0,0,0-2293.736,155.174Z" transform="translate(2335.949 -143.901)"/>
        <path id="Path_9" data-name="Path 9" d="M-2381.028,162.622a6.875,6.875,0,0,1,.279,1.408.964.964,0,0,1-.436.762,5.38,5.38,0,0,1-5.056-.666,4.843,4.843,0,0,1-1.783-4.78c.484-3.727,3.437-4.831,6.222-4.1,1.06.278,1.2.9.467,2.263-1.352-.1-2.884-.791-3.887.623a3.233,3.233,0,0,0-.042,3.65C-2384.242,163.441-2382.622,162.846-2381.028,162.622Z" transform="translate(2404.171 -151.391)"/>
        <path id="Path_10" data-name="Path 10" d="M-2454.082,150.766l.276,1.845c-2.6.742-4.086-.374-4.088-3.08,0-3.4,0-6.806,0-10.269h2.529v1.767c0,2.761.036,5.522-.019,8.282C-2455.405,150.276-2455.226,150.894-2454.082,150.766Z" transform="translate(2457.896 -139.254)"/>
        <path id="Path_11" data-name="Path 11" d="M-2346.809,139.227h2.163v13.45h-2.163Z" transform="translate(2372.406 -139.227)"/>
        <path id="Path_12" data-name="Path 12" d="M-2216.224,164.191v-9.314c1.856-.443,3.7-1.168,5.721-.368-.178.616-.354,1.221-.546,1.884a7.69,7.69,0,0,0-.8-.188c-1.767-.214-2.126.1-2.126,1.853v6.132Z" transform="translate(2271.912 -150.711)"/>
        <path id="Path_13" data-name="Path 13" d="M-2332.184,160.481l4,5.106c-.975,0-1.728.017-2.48-.012a.824.824,0,0,1-.55-.256c-1.312-1.615-2.6-3.247-3.894-4.865a22.373,22.373,0,0,0,2.461-3.067c.917-1.659,2.27-1.622,3.945-1.384Z" transform="translate(2363.398 -152.046)"/>
        <path id="Path_14" data-name="Path 14" d="M-2094.247,155.384a1.665,1.665,0,0,0-1.19.02c-.781.206-1.832.184-1.937-.969-.127-1.392-.03-2.805-.03-4.33h3.157v-2.274h-3.2v-2.437h-2.267c0,3.193,0,6.3.006,9.4a2.892,2.892,0,0,0,.136.658c.522,2.112,3.219,2.64,5.322,1.862Z" transform="translate(2182.247 -143.973)"/>
      </g>
      <path id="Path_78166" data-name="Path 78166" d="M2.01-12.655v-.935h.5c.355,0,.513.175.513.47s-.157.465-.513.465Zm1.66-.465a.993.993,0,0,0-1.134-.994H1.38V-10.9h.63v-1.234h.526A.993.993,0,0,0,3.67-13.12Zm7.123,0a.444.444,0,0,1-.508.479H9.758v-.944h.526C10.636-13.58,10.793-13.4,10.793-13.115Zm-1.665-1V-10.9h.63v-1.252h.3l.693,1.252h.729l-.751-1.3a.925.925,0,0,0,.715-.925,1,1,0,0,0-1.134-.985Zm10.961,1.6a1.587,1.587,0,0,0-1.606-1.643,1.6,1.6,0,0,0-1.611,1.643,1.6,1.6,0,0,0,1.611,1.648A1.591,1.591,0,0,0,20.09-12.517Zm-2.569,0a.956.956,0,0,1,.963-1.063.955.955,0,0,1,.958,1.063.963.963,0,0,1-.958,1.073A.964.964,0,0,1,17.52-12.517ZM25.57-10.9h.63v-1.358h1v-.511h-1v-.824H27.51v-.52H25.57Zm9.22-3.218H32.968V-10.9H34.79v-.525H33.6v-.852h1.057v-.511H33.6v-.806H34.79Zm7.78,2.288c0-1.132-1.611-.773-1.611-1.418a.367.367,0,0,1,.432-.377.418.418,0,0,1,.45.382h.693a1,1,0,0,0-1.125-.916c-.648,0-1.107.35-1.107.93,0,1.165,1.615.746,1.615,1.441,0,.23-.175.391-.472.391a.435.435,0,0,1-.477-.428h-.675c.009.608.513.958,1.165.958A1,1,0,0,0,42.57-11.831Zm7.753,0c0-1.132-1.611-.773-1.611-1.418a.367.367,0,0,1,.432-.377.418.418,0,0,1,.45.382h.693a1,1,0,0,0-1.125-.916c-.648,0-1.107.35-1.107.93,0,1.165,1.615.746,1.615,1.441,0,.23-.175.391-.472.391a.435.435,0,0,1-.477-.428h-.675c.009.608.513.958,1.165.958A1,1,0,0,0,50.323-11.831Zm5.557.93h.63v-3.213h-.63Zm9.328-1.616A1.587,1.587,0,0,0,63.6-14.16a1.6,1.6,0,0,0-1.611,1.643A1.6,1.6,0,0,0,63.6-10.868,1.591,1.591,0,0,0,65.208-12.517Zm-2.569,0A.956.956,0,0,1,63.6-13.58a.955.955,0,0,1,.958,1.063.963.963,0,0,1-.958,1.073A.964.964,0,0,1,62.639-12.517Zm10.106-1.6v2.21l-1.426-2.21h-.63V-10.9h.63v-2.205L72.745-10.9h.63v-3.218Zm8.4,3.218h.666l-1.129-3.218h-.733L78.816-10.9h.661l.207-.612h1.251Zm-.378-1.128h-.909l.454-1.344Zm6.48-2.085V-10.9h1.665v-.511H87.873v-2.7Z" transform="translate(3920.091 8401.204)"/>
    </g>
  </g>
</svg>
