<svg xmlns="http://www.w3.org/2000/svg" xmlns:xlink="http://www.w3.org/1999/xlink" width="681" height="826" viewBox="0 0 681 826"><defs><style>.a{fill:url(#a);}.b{opacity:0.05;}.c{fill:#fff;}.d{filter:url(#b);}</style><linearGradient id="a" x1="1.324" y1="-0.258" x2="0" y2="1" gradientUnits="objectBoundingBox"><stop offset="0" stop-color="#26001c"/><stop offset="1" stop-color="#9e227e"/></linearGradient><filter id="b" x="0" y="0" width="681" height="826" filterUnits="userSpaceOnUse"><feOffset input="SourceAlpha"/><feGaussianBlur stdDeviation="6" result="c"/><feFlood flood-opacity="0.078"/><feComposite operator="in" in2="c"/><feComposite in="SourceGraphic"/></filter></defs><g transform="translate(-297 -122)"><g class="d" transform="matrix(1, 0, 0, 1, 297, 122)"><path class="a" d="M0,0H790a0,0,0,0,1,0,0V642a3,3,0,0,1-3,3H3a3,3,0,0,1-3-3V0A0,0,0,0,1,0,0Z" transform="translate(663 18) rotate(90)"/></g><g class="b" transform="translate(429 301.912)"><g transform="translate(0 0)"><path class="c" d="M-2200.191-140.042c10.26-6.041,19.137-11,27.717-16.427,4.9-3.1,8.967-2.716,13.895.151q97.122,56.567,194.492,112.7c4.486,2.579,6.107,5.012,6.09,10.182q-.275,112.678-.025,225.355c.016,5.514-1.785,8.214-6.7,11.035q-97.163,55.72-193.9,112.178c-5.008,2.911-8.492,3.325-13.73.271-64.725-37.79-129.666-75.231-194.385-113.025-2.877-1.681-6.1-5.9-6.107-8.946-.309-76.73-.211-153.46-.168-230.19a19.9,19.9,0,0,1,.783-3.161c10.887,6.225,21.7,11.952,31.877,18.64,1.936,1.275,1.908,6.355,1.914,9.679.1,60.29.271,120.58-.152,180.864-.055,8.055,2.918,12.058,9.369,15.751,52.9,30.315,105.619,60.934,158.543,91.185,2.529,1.441,7.234,1.6,9.7.191,53.24-30.377,106.27-61.118,159.436-91.611,6.123-3.509,8.957-7.411,8.9-15.1q-.595-90.429-.059-180.864c.039-7-2.088-10.718-8.238-14.229-52.408-29.932-104.564-60.3-156.83-90.493C-2171.463-123.812-2185.254-131.549-2200.191-140.042Z" transform="translate(2373.065 158.635)"/><path class="c" d="M-2302.723-119.479c4.541-2.719,8.025-4.955,11.633-6.938,7.688-4.208,15.5-11.639,23.137-11.478,7.8.164,15.488,7.765,23.164,12.211q86.971,50.356,173.977,100.649c6.965,4,10.047,8.29,9.934,17.017-.6,45.765-.436,91.541-.117,137.312.045,7.1-1.676,11.072-8.262,14.8-41.475,23.465-82.625,47.477-123.744,71.561-4.7,2.755-8.064,2.393-12.564-.234-42.5-24.788-85.162-49.307-127.662-74.114a8.859,8.859,0,0,1-3.771-6.421c-.219-50.915-.164-101.831-.164-154.534,11.539,6.672,22.229,12.5,32.436,19.083,1.8,1.164,2.2,5.485,2.211,8.352.145,34.49-.1,68.982.342,103.466.049,3.96,2.52,9.659,5.656,11.536,29.172,17.437,58.855,34.016,88.107,51.326,6.383,3.782,11.275,4.366,17.865.462,29.5-17.462,59.389-34.285,88.871-51.781,2.852-1.689,5.484-6.409,5.529-9.752.391-35.775.326-71.557.07-107.334-.02-2.538-1.9-6.183-4.016-7.421q-73.146-42.87-146.572-85.261C-2265.035-97.632-2283.4-108.28-2302.723-119.479Z" transform="translate(2406.612 178.017)"/><path class="c" d="M-2355.139-99.593c6.514-3.809,12.68-6.2,17.275-10.333,11.943-10.739,22.295-6.564,34.273.522q90.144,53.346,181.014,105.478c6.26,3.608,9.119,7.106,8.891,14.682-.609,20.605-.047,41.243-.389,61.862-.043,2.827-1.795,6.878-4.037,8.224-21.211,12.739-42.7,25.017-64.248,37.508-21.236-12.277-42.471-24.378-63.437-36.91a11.149,11.149,0,0,1-4.664-7.98c-.363-23.511-.209-47.03-.209-72.783,11.82,6.8,22.674,12.739,33.09,19.377,1.553.989,1.264,5.264,1.391,8.04.467,10.532-2.531,22.938,2.063,31.07,4.334,7.665,16.338,11.379,25.494,15.7,3.535,1.666,8.537.246,12.867.12.512-.016.951-.946,1.518-1.113,24.3-7.042,29.41-24.691,25.5-46.976-.555-3.142-2.463-7.179-5-8.673-49.795-29.336-99.779-58.341-149.707-87.453C-2320.441-79.144-2337.381-89.159-2355.139-99.593Z" transform="translate(2389.818 198.051)"/></g></g><g transform="translate(20875 20966)"><g transform="translate(-20378 -20460)"><g transform="translate(0 0)"><path class="c" d="M-2352.346-156.407c1.23-.724,2.293-1.318,3.322-1.969a1.427,1.427,0,0,1,1.665.018q11.64,6.779,23.31,13.508a1.2,1.2,0,0,1,.73,1.22q-.033,13.5,0,27.009a1.312,1.312,0,0,1-.8,1.323q-11.645,6.678-23.239,13.444a1.4,1.4,0,0,1-1.646.032c-7.757-4.529-15.54-9.016-23.3-13.546a1.563,1.563,0,0,1-.732-1.072c-.037-9.2-.025-18.392-.02-27.588a2.379,2.379,0,0,1,.094-.379c1.3.746,2.6,1.432,3.82,2.234.232.153.229.762.229,1.16.012,7.226.032,14.451-.018,21.676a1.891,1.891,0,0,0,1.123,1.888c6.34,3.633,12.658,7.3,19,10.929a1.385,1.385,0,0,0,1.162.023c6.381-3.641,12.736-7.325,19.108-10.979a1.816,1.816,0,0,0,1.067-1.81q-.071-10.838-.007-21.676a1.68,1.68,0,0,0-.987-1.705c-6.281-3.587-12.532-7.227-18.8-10.845C-2348.9-154.462-2350.555-155.389-2352.346-156.407Z" transform="translate(2373.064 158.635)"/><path class="c" d="M-2333.041-135.69c.544-.326.962-.594,1.394-.831.921-.5,1.858-1.395,2.773-1.376.936.02,1.856.931,2.776,1.464q10.423,6.035,20.851,12.063a2.017,2.017,0,0,1,1.191,2.039c-.072,5.485-.052,10.971-.014,16.457a1.71,1.71,0,0,1-.99,1.773c-4.971,2.812-9.9,5.69-14.831,8.577a1.293,1.293,0,0,1-1.506-.028c-5.094-2.971-10.207-5.909-15.3-8.883a1.062,1.062,0,0,1-.452-.77c-.026-6.1-.02-12.2-.02-18.521,1.383.8,2.664,1.5,3.887,2.287.216.14.263.657.265,1,.017,4.134-.012,8.267.041,12.4a1.869,1.869,0,0,0,.678,1.383c3.5,2.09,7.054,4.077,10.56,6.151a1.832,1.832,0,0,0,2.141.055c3.536-2.093,7.118-4.109,10.651-6.206a1.615,1.615,0,0,0,.663-1.169c.047-4.288.039-8.576.008-12.864a1.21,1.21,0,0,0-.481-.889q-8.766-5.138-17.567-10.219Z" transform="translate(2345.492 142.706)"/><path class="c" d="M-2355.138-114.44a12.792,12.792,0,0,0,2.07-1.238c1.431-1.287,2.672-.787,4.108.063q10.8,6.393,21.694,12.641a1.718,1.718,0,0,1,1.066,1.76c-.073,2.47-.006,4.943-.047,7.414a1.334,1.334,0,0,1-.484.986c-2.542,1.527-5.117,3-7.7,4.5-2.545-1.471-5.09-2.922-7.6-4.424a1.336,1.336,0,0,1-.559-.956c-.043-2.818-.025-5.637-.025-8.723,1.417.815,2.717,1.527,3.966,2.322.186.118.151.631.167.964.056,1.262-.3,2.749.247,3.724.519.919,1.958,1.364,3.055,1.881a3.711,3.711,0,0,0,1.542.014c.062,0,.114-.113.182-.133,2.913-.844,3.525-2.959,3.056-5.63a1.633,1.633,0,0,0-.6-1.039c-5.968-3.516-11.958-6.992-17.942-10.481C-2350.979-111.989-2353.01-113.189-2355.138-114.44Z" transform="translate(2359.294 126.24)"/></g><g transform="translate(62.063 0.092)"><path class="c" d="M-2258.447,172.932h-5.566V139.279h5.441v12.664c3.44-2.9,6.731-4.516,10.884-3.054a6.321,6.321,0,0,1,4.582,5.609c.319,6.084.1,12.2.1,18.421h-5.7c0-4.765-.044-9.516.019-14.265.03-2.267-.192-4.253-2.994-4.576-3.648-.422-5.727.646-6.163,3.723-.478,3.372-.448,6.817-.592,10.232C-2258.5,169.557-2258.447,171.085-2258.447,172.932Z" transform="translate(2375.508 -139.249)"/><path class="c" d="M-2181.836,169.959c-.856,3.976,3.877,5.988,12.853,3.459.292,1.749.578,3.466.853,5.113a20.525,20.525,0,0,1-10.147,1.446c-1.81-.209-5.181-.931-7.285-3.658a13.153,13.153,0,0,1-1.892-3.844,17.29,17.29,0,0,1-.708-3.7c-.091-1.409-.654-8.785,4.815-12.223a11.837,11.837,0,0,1,12.3.053c3.063,2.028,4.978,8,3.747,11.543-.248.714-1.678,1.387-2.593,1.431-3.808.183-7.625.115-11.439.155C-2181.5,169.732-2181.667,169.878-2181.836,169.959Zm-.132-5.17H-2173c.013-3.516-1.04-4.611-4.169-4.677C-2180.782,160.036-2181.847,160.991-2181.968,164.79Z" transform="translate(2343.302 -145.866)"/><path class="c" d="M-2434.945,167.494c.326-8.143,4.487-12.574,11.9-12.41,7.454.165,11.065,3.9,10.944,12.714-.129,9.407-4.781,12.24-11.493,12.446C-2430.924,180.47-2434.981,175.591-2434.945,167.494Zm11.685-6.718c-4.109-.6-5.882,2.365-5.878,6.728,0,4.749,1.778,7.1,5.668,7.154s5.763-2.368,5.645-7.1C-2417.94,162.945-2419.03,160.409-2423.261,160.775Z" transform="translate(2448.143 -145.963)"/><path class="c" d="M-2129.62,165.292c.843-4.889-2.624-6.3-11.411-4.174-.27-1.541-.539-3.075-.843-4.808,4.552-1.59,9.2-2.2,13.7-.142,3.486,1.593,4.425,4.975,4.475,8.555.066,4.584.016,9.171.016,14.085-5.372,1.669-10.755,2.392-16.167.339-2.587-.982-4.282-4.738-3.777-7.574a7.321,7.321,0,0,1,6.718-6.262C-2134.536,165.215-2132.161,165.292-2129.62,165.292Zm.12,4.032c-2.071,0-3.96-.34-5.629.122a4.314,4.314,0,0,0-2.591,2.752c-.162.772,1.139,2.525,2.029,2.715,1.96.421,4.073.131,6.191.131Z" transform="translate(2324.389 -145.868)"/><path class="c" d="M-2285.212,169.941a28.992,28.992,0,0,1,.77,3c.258,1.694-.246,2.765-2.266,2.7-1.3-.044-2.647.487-3.91.314-7.791-1.069-8.068-3.4-8.521-9.024-.573-7.109-.137-14.3-.137-21.626h5.994v6.022h8.073V157.1h-7.8c0,3.939-.182,7.63.147,11.276.069.771,1.945,1.725,3.114,1.956C-2288.438,170.6-2286.982,170.131-2285.212,169.941Z" transform="translate(2390.56 -141.808)"/><path class="c" d="M-2370.475,173.973a17.032,17.032,0,0,1,.7,3.513,2.4,2.4,0,0,1-1.087,1.9c-4.417,1.3-8.76,1.28-12.618-1.663-3.952-3.013-5.05-7.293-4.449-11.928,1.207-9.3,8.577-12.057,15.526-10.234,2.646.694,3,2.245,1.166,5.647-3.374-.248-7.2-1.974-9.7,1.554a8.07,8.07,0,0,0-.1,9.11C-2378.5,176.016-2374.453,174.532-2370.475,173.973Z" transform="translate(2428.231 -145.943)"/><path class="c" d="M-2448.377,167.972l.687,4.6c-6.482,1.852-10.2-.932-10.2-7.687-.006-8.493,0-16.986,0-25.627h6.312v4.41c0,6.89.088,13.781-.049,20.668C-2451.679,166.749-2451.234,168.291-2448.377,167.972Z" transform="translate(2457.896 -139.242)"/><path class="c" d="M-2346.809,139.227h5.4v33.566h-5.4Z" transform="translate(2410.69 -139.227)"/><path class="c" d="M-2216.224,179.208V155.964c4.632-1.106,9.223-2.916,14.277-.918-.445,1.537-.883,3.047-1.364,4.7a19.157,19.157,0,0,0-2-.47c-4.408-.534-5.305.257-5.305,4.625v15.3Z" transform="translate(2355.2 -145.568)"/><path class="c" d="M-2327.817,167.358c3.334,4.254,6.508,8.3,9.99,12.742-2.433,0-4.313.042-6.189-.029a2.058,2.058,0,0,1-1.372-.638c-3.273-4.031-6.5-8.1-9.717-12.141,2.156-2.627,4.608-4.885,6.141-7.655,2.288-4.14,5.666-4.047,9.844-3.454Z" transform="translate(2405.717 -146.305)"/><path class="c" d="M-2086.076,170.324a4.155,4.155,0,0,0-2.971.049c-1.948.513-4.572.46-4.834-2.418-.316-3.475-.075-7-.075-10.805h7.88v-5.674h-7.977v-6.081h-5.657c0,7.968-.006,15.71.015,23.452a7.222,7.222,0,0,0,.339,1.643c1.3,5.27,8.034,6.589,13.281,4.647Z" transform="translate(2305.69 -141.848)"/></g></g><path class="c" d="M5.214-7.689H.759V0H5.214V-1.254H2.3V-3.289H4.884V-4.51H2.3V-6.435H5.214Zm23.727,0v5.28l-3.487-5.28h-1.54V0h1.54V-5.269L28.941,0h1.54V-7.689ZM48.9-6.435h2.046V0h1.54V-6.435h2.046V-7.678H48.9ZM77.407-7.689H72.952V0h4.455V-1.254H74.492V-3.289h2.585V-4.51H74.492V-6.435h2.915Zm22.77,2.4c0,.693-.385,1.144-1.243,1.144H97.647V-6.4h1.287C99.792-6.4,100.177-5.973,100.177-5.291Zm-4.07-2.387V0h1.54V-2.992h.726L100.067,0h1.782l-1.837-3.113a2.217,2.217,0,0,0,1.749-2.211c0-1.287-.924-2.354-2.772-2.354ZM122-4.191V-6.424h1.221c.869,0,1.254.418,1.254,1.122,0,.682-.385,1.111-1.254,1.111ZM126.06-5.3c0-1.331-.924-2.376-2.772-2.376h-2.827V0H122V-2.948h1.287C125.268-2.948,126.06-4.136,126.06-5.3Zm22.462.011c0,.693-.385,1.144-1.243,1.144h-1.287V-6.4h1.287C148.137-6.4,148.522-5.973,148.522-5.291Zm-4.07-2.387V0h1.54V-2.992h.726L148.412,0h1.782l-1.837-3.113a2.217,2.217,0,0,0,1.749-2.211c0-1.287-.924-2.354-2.772-2.354ZM168.806,0h1.54V-7.678h-1.54Zm25.729-2.222c0-2.706-3.938-1.848-3.938-3.388,0-.627.451-.924,1.056-.9a1.014,1.014,0,0,1,1.1.913h1.694c-.1-1.386-1.177-2.189-2.75-2.189s-2.706.836-2.706,2.222c-.011,2.783,3.949,1.782,3.949,3.443,0,.55-.429.935-1.155.935a1.054,1.054,0,0,1-1.166-1.023h-1.65c.022,1.452,1.254,2.288,2.849,2.288A2.422,2.422,0,0,0,194.535-2.222Zm23.089-5.467h-4.455V0h4.455V-1.254h-2.915V-3.289h2.585V-4.51h-2.585V-6.435h2.915Z" transform="translate(-20315.76 -20407.213)"/></g></g></svg>