<svg xmlns="http://www.w3.org/2000/svg" xmlns:xlink="http://www.w3.org/1999/xlink" width="1920" height="1080" viewBox="0 0 1920 1080"><defs><style>.a{fill:#fff;}.a,.c{stroke:#707070;}.b{clip-path:url(#a);}.c{fill:#ffecfa;}.d{fill:#707070;}.e{fill:#ffe1f7;}.f{opacity:0.04;}.g{fill:url(#b);}.h{fill:url(#c);}.i{fill:url(#d);}.j{stroke:none;}.k{fill:none;}</style><clipPath id="a"><rect class="a" width="1920" height="1080"/></clipPath><linearGradient id="b" x1="0.053" y1="0.903" x2="0.613" y2="0.397" gradientUnits="objectBoundingBox"><stop offset="0" stop-color="#9e227e"/><stop offset="1" stop-color="#db2576"/></linearGradient><linearGradient id="c" x1="-0.231" y1="1.052" x2="0.609" y2="0.375" xlink:href="#b"/><linearGradient id="d" x1="-0.27" y1="1.268" x2="0.692" y2="0.242" xlink:href="#b"/></defs><g class="b"><g class="c"><rect class="j" width="1920" height="1080"/><rect class="k" x="0.5" y="0.5" width="1919" height="1079"/></g><rect class="d" width="1162" height="712" rx="3" transform="translate(378 248)"/><rect class="e" width="1920" height="1080" rx="3"/><g class="f" transform="translate(1376.423 456.84)"><path class="g" d="M-2106.589-129.974c15.817-9.313,29.5-16.956,42.723-25.321,7.555-4.78,13.823-4.186,21.419.232q149.708,87.2,299.8,173.728c6.914,3.975,9.413,7.726,9.388,15.695q-.428,173.687-.042,347.375c.026,8.5-2.749,12.662-10.327,17.01q-149.772,85.889-298.888,172.917c-7.723,4.488-13.094,5.126-21.166.417-99.771-58.252-199.872-115.964-299.635-174.223-4.435-2.591-9.4-9.093-9.413-13.789-.479-118.276-.327-236.552-.26-354.827,0-.94.446-1.879,1.208-4.873,16.78,9.6,33.444,18.423,49.136,28.732,2.985,1.965,2.941,9.8,2.952,14.919.156,92.934.417,185.868-.237,278.793-.083,12.417,4.5,18.587,14.442,24.28,81.543,46.73,162.806,93.927,244.39,140.558,3.9,2.221,11.148,2.46,14.943.3,82.07-46.825,163.814-94.21,245.765-141.214,9.438-5.409,13.807-11.424,13.721-23.281q-.918-139.392-.091-278.793c.058-10.794-3.218-16.521-12.7-21.933-80.788-46.139-161.18-92.955-241.75-139.491C-2062.305-104.957-2083.562-116.883-2106.589-129.974Z" transform="translate(2373.065 158.635)"/><path class="h" d="M-2284.072-109.506c7-4.191,12.371-7.638,17.933-10.694,11.849-6.486,23.9-17.941,35.66-17.693,12.034.253,23.877,11.97,35.709,18.823q134.062,77.622,268.179,155.146c10.73,6.173,15.485,12.778,15.312,26.23-.926,70.544-.674,141.107-.184,211.66.072,10.944-2.583,17.066-12.732,22.807-63.931,36.17-127.362,73.184-190.746,110.308-7.243,4.247-12.433,3.689-19.368-.361-65.511-38.21-131.274-76-196.783-114.244-2.947-1.718-5.809-6.519-5.817-9.9-.336-78.483-.252-156.969-.252-238.207,17.786,10.285,34.265,19.267,50,29.415,2.782,1.8,3.387,8.454,3.41,12.874.223,53.165-.149,106.333.525,159.488.075,6.1,3.884,14.89,8.721,17.782,44.965,26.877,90.72,52.434,135.813,79.117,9.84,5.83,17.379,6.731,27.539.713,45.477-26.916,91.544-52.849,136.99-79.819,4.4-2.6,8.458-9.88,8.524-15.033.6-55.145.5-110.3.108-165.45-.028-3.913-2.929-9.531-6.19-11.439Q-2084.475,5.941-2197.662-59.4C-2225.976-75.83-2254.29-92.244-2284.072-109.506Z" transform="translate(2444.21 199.74)"/><path class="i" d="M-2355.139-90.459c10.039-5.872,19.545-9.552,26.626-15.927,18.412-16.554,34.368-10.119,52.834.805q138.951,82.23,279.022,162.59c9.647,5.562,14.057,10.953,13.7,22.631-.937,31.762-.069,63.575-.6,95.358-.068,4.357-2.768,10.6-6.224,12.677-32.7,19.637-65.813,38.562-99.035,57.817-32.734-18.924-65.465-37.577-97.786-56.9-3.645-2.18-7.124-8.075-7.192-12.3-.555-36.242-.318-72.495-.318-112.192,18.218,10.482,34.949,19.637,51.006,29.869,2.394,1.524,1.948,8.114,2.142,12.394.72,16.234-3.9,35.359,3.181,47.893,6.68,11.815,25.185,17.541,39.3,24.194,5.448,2.567,13.159.379,19.83.185.793-.024,1.468-1.458,2.34-1.715,37.467-10.855,45.333-38.061,39.307-72.411-.854-4.843-3.8-11.066-7.7-13.369-76.759-45.22-153.807-89.931-230.768-134.806C-2301.655-58.939-2327.766-74.377-2355.139-90.459Z" transform="translate(2408.596 242.227)"/></g><g class="f" transform="translate(-163.577 -218.16)"><path class="g" d="M-2106.589-129.974c15.817-9.313,29.5-16.956,42.723-25.321,7.555-4.78,13.823-4.186,21.419.232q149.708,87.2,299.8,173.728c6.914,3.975,9.413,7.726,9.388,15.695q-.428,173.687-.042,347.375c.026,8.5-2.749,12.662-10.327,17.01q-149.772,85.889-298.888,172.917c-7.723,4.488-13.094,5.126-21.166.417-99.771-58.252-199.872-115.964-299.635-174.223-4.435-2.591-9.4-9.093-9.413-13.789-.479-118.276-.327-236.552-.26-354.827,0-.94.446-1.879,1.208-4.873,16.78,9.6,33.444,18.423,49.136,28.732,2.985,1.965,2.941,9.8,2.952,14.919.156,92.934.417,185.868-.237,278.793-.083,12.417,4.5,18.587,14.442,24.28,81.543,46.73,162.806,93.927,244.39,140.558,3.9,2.221,11.148,2.46,14.943.3,82.07-46.825,163.814-94.21,245.765-141.214,9.438-5.409,13.807-11.424,13.721-23.281q-.918-139.392-.091-278.793c.058-10.794-3.218-16.521-12.7-21.933-80.788-46.139-161.18-92.955-241.75-139.491C-2062.305-104.957-2083.562-116.883-2106.589-129.974Z" transform="translate(2373.065 158.635)"/><path class="h" d="M-2284.072-109.506c7-4.191,12.371-7.638,17.933-10.694,11.849-6.486,23.9-17.941,35.66-17.693,12.034.253,23.877,11.97,35.709,18.823q134.062,77.622,268.179,155.146c10.73,6.173,15.485,12.778,15.312,26.23-.926,70.544-.674,141.107-.184,211.66.072,10.944-2.583,17.066-12.732,22.807-63.931,36.17-127.362,73.184-190.746,110.308-7.243,4.247-12.433,3.689-19.368-.361-65.511-38.21-131.274-76-196.783-114.244-2.947-1.718-5.809-6.519-5.817-9.9-.336-78.483-.252-156.969-.252-238.207,17.786,10.285,34.265,19.267,50,29.415,2.782,1.8,3.387,8.454,3.41,12.874.223,53.165-.149,106.333.525,159.488.075,6.1,3.884,14.89,8.721,17.782,44.965,26.877,90.72,52.434,135.813,79.117,9.84,5.83,17.379,6.731,27.539.713,45.477-26.916,91.544-52.849,136.99-79.819,4.4-2.6,8.458-9.88,8.524-15.033.6-55.145.5-110.3.108-165.45-.028-3.913-2.929-9.531-6.19-11.439Q-2084.475,5.941-2197.662-59.4C-2225.976-75.83-2254.29-92.244-2284.072-109.506Z" transform="translate(2444.21 199.74)"/><path class="i" d="M-2355.139-90.459c10.039-5.872,19.545-9.552,26.626-15.927,18.412-16.554,34.368-10.119,52.834.805q138.951,82.23,279.022,162.59c9.647,5.562,14.057,10.953,13.7,22.631-.937,31.762-.069,63.575-.6,95.358-.068,4.357-2.768,10.6-6.224,12.677-32.7,19.637-65.813,38.562-99.035,57.817-32.734-18.924-65.465-37.577-97.786-56.9-3.645-2.18-7.124-8.075-7.192-12.3-.555-36.242-.318-72.495-.318-112.192,18.218,10.482,34.949,19.637,51.006,29.869,2.394,1.524,1.948,8.114,2.142,12.394.72,16.234-3.9,35.359,3.181,47.893,6.68,11.815,25.185,17.541,39.3,24.194,5.448,2.567,13.159.379,19.83.185.793-.024,1.468-1.458,2.34-1.715,37.467-10.855,45.333-38.061,39.307-72.411-.854-4.843-3.8-11.066-7.7-13.369-76.759-45.22-153.807-89.931-230.768-134.806C-2301.655-58.939-2327.766-74.377-2355.139-90.459Z" transform="translate(2408.596 242.227)"/></g></g></svg>