<svg xmlns="http://www.w3.org/2000/svg" width="415.067" height="476.152" viewBox="0 0 415.067 476.152">
  <g id="Group_102530" data-name="Group 102530" opacity="0.05">
    <g id="Group_1" data-name="Group 1" transform="translate(0 0)">
      <path id="Path_1" data-name="Path 1" d="M-2200.191-140.042c10.26-6.041,19.137-11,27.717-16.427,4.9-3.1,8.967-2.716,13.895.151q97.122,56.567,194.492,112.7c4.486,2.579,6.107,5.012,6.09,10.182q-.275,112.678-.025,225.355c.016,5.514-1.785,8.214-6.7,11.035q-97.163,55.72-193.9,112.178c-5.008,2.911-8.492,3.325-13.73.271-64.725-37.79-129.666-75.231-194.385-113.025-2.877-1.681-6.1-5.9-6.107-8.946-.309-76.73-.211-153.46-.168-230.19a19.9,19.9,0,0,1,.783-3.161c10.887,6.225,21.7,11.952,31.877,18.64,1.936,1.275,1.908,6.355,1.914,9.679.1,60.29.271,120.58-.152,180.864-.055,8.055,2.918,12.058,9.369,15.751,52.9,30.315,105.619,60.934,158.543,91.185,2.529,1.441,7.234,1.6,9.7.191,53.24-30.377,106.27-61.118,159.436-91.611,6.123-3.509,8.957-7.411,8.9-15.1q-.595-90.429-.059-180.864c.039-7-2.088-10.718-8.238-14.229-52.408-29.932-104.564-60.3-156.83-90.493C-2171.463-123.812-2185.254-131.549-2200.191-140.042Z" transform="translate(2373.065 158.635)" fill="#fff"/>
      <path id="Path_2" data-name="Path 2" d="M-2302.723-119.479c4.541-2.719,8.025-4.955,11.633-6.938,7.688-4.208,15.5-11.639,23.137-11.478,7.8.164,15.488,7.765,23.164,12.211q86.971,50.356,173.977,100.649c6.965,4,10.047,8.29,9.934,17.017-.6,45.765-.436,91.541-.117,137.312.045,7.1-1.676,11.072-8.262,14.8-41.475,23.465-82.625,47.477-123.744,71.561-4.7,2.755-8.064,2.393-12.564-.234-42.5-24.788-85.162-49.307-127.662-74.114a8.859,8.859,0,0,1-3.771-6.421c-.219-50.915-.164-101.831-.164-154.534,11.539,6.672,22.229,12.5,32.436,19.083,1.8,1.164,2.2,5.485,2.211,8.352.145,34.49-.1,68.982.342,103.466.049,3.96,2.52,9.659,5.656,11.536,29.172,17.437,58.855,34.016,88.107,51.326,6.383,3.782,11.275,4.366,17.865.462,29.5-17.462,59.389-34.285,88.871-51.781,2.852-1.689,5.484-6.409,5.529-9.752.391-35.775.326-71.557.07-107.334-.02-2.538-1.9-6.183-4.016-7.421q-73.146-42.87-146.572-85.261C-2265.035-97.632-2283.4-108.28-2302.723-119.479Z" transform="translate(2406.612 178.017)" fill="#fff"/>
      <path id="Path_3" data-name="Path 3" d="M-2355.139-99.593c6.514-3.809,12.68-6.2,17.275-10.333,11.943-10.739,22.295-6.564,34.273.522q90.144,53.346,181.014,105.478c6.26,3.608,9.119,7.106,8.891,14.682-.609,20.605-.047,41.243-.389,61.862-.043,2.827-1.795,6.878-4.037,8.224-21.211,12.739-42.7,25.017-64.248,37.508-21.236-12.277-42.471-24.378-63.437-36.91a11.149,11.149,0,0,1-4.664-7.98c-.363-23.511-.209-47.03-.209-72.783,11.82,6.8,22.674,12.739,33.09,19.377,1.553.989,1.264,5.264,1.391,8.04.467,10.532-2.531,22.938,2.063,31.07,4.334,7.665,16.338,11.379,25.494,15.7,3.535,1.666,8.537.246,12.867.12.512-.016.951-.946,1.518-1.113,24.3-7.042,29.41-24.691,25.5-46.976-.555-3.142-2.463-7.179-5-8.673-49.795-29.336-99.779-58.341-149.707-87.453C-2320.441-79.144-2337.381-89.159-2355.139-99.593Z" transform="translate(2389.818 198.051)" fill="#fff"/>
    </g>
  </g>
</svg>
