<svg xmlns="http://www.w3.org/2000/svg" width="73" height="73" viewBox="0 0 73 73"><defs><style>.a,.b{fill:none;stroke:#7a1761;stroke-linejoin:round;stroke-width:3px;}.a{stroke-linecap:round;}</style></defs><g transform="translate(-2698.5 -3421.5)"><path class="a" d="M2721.724,3471.276h-15.69a6.052,6.052,0,0,1-6.034-6.035v-36.207a6.052,6.052,0,0,1,6.034-6.034h48.276a6.052,6.052,0,0,1,6.035,6.034v16.9"/><line class="a" x2="60.345" transform="translate(2700 3435.069)"/><circle class="a" cx="1.207" cy="1.207" r="1.207" transform="translate(2707.241 3427.828)"/><circle class="a" cx="1.207" cy="1.207" r="1.207" transform="translate(2714.483 3427.828)"/><circle class="a" cx="1.207" cy="1.207" r="1.207" transform="translate(2721.724 3427.828)"/><path class="b" d="M2761.281,3469.9a14.552,14.552,0,0,0-.252-2.643l2.815-1.625-4.828-8.362-2.816,1.626a14.479,14.479,0,0,0-4.574-2.638V3453h-9.655v3.255a14.446,14.446,0,0,0-4.574,2.638l-2.817-1.626-4.828,8.362,2.816,1.625a13.955,13.955,0,0,0,0,5.285l-2.816,1.625,4.828,8.361,2.815-1.625a14.434,14.434,0,0,0,4.576,2.639v3.255h9.655v-3.255a14.448,14.448,0,0,0,4.575-2.638l2.815,1.626,4.828-8.362-2.815-1.625A14.544,14.544,0,0,0,2761.281,3469.9Z" transform="translate(6.156 6.207)"/><circle class="b" cx="6.034" cy="6.034" r="6.034" transform="translate(2746.919 3470.069)"/></g></svg>