<svg xmlns="http://www.w3.org/2000/svg" width="123" height="85.764" viewBox="0 0 123 85.764"><defs><style>.a{fill:none;stroke:#fff;stroke-linecap:round;stroke-linejoin:round;stroke-width:3px;}</style></defs><g transform="translate(-478.5 -13635.5)"><circle class="a" cx="8.276" cy="8.276" r="8.276" transform="translate(531.724 13688.726)"/><line class="a" y1="25.187" x2="25.187" transform="translate(545.847 13665.967)"/><line class="a" x2="10.435" transform="translate(490.435 13699.61)"/><line class="a" x1="10.434" y1="0.006" transform="translate(579.13 13699.61)"/><line class="a" x1="9.642" y2="3.988" transform="translate(576.148 13678.037)"/><line class="a" x1="3.992" y2="9.64" transform="translate(554.974 13651.212)"/><line class="a" y2="10.438" transform="translate(540 13647.432)"/><line class="a" x2="3.99" y2="9.64" transform="translate(521.036 13651.212)"/><line class="a" x2="7.372" y2="7.383" transform="translate(504.956 13661.95)"/><line class="a" x2="9.64" y2="3.992" transform="translate(494.21 13678.03)"/><path class="a" d="M540,13637a60,60,0,0,0-60,60v22.764H600V13697A60,60,0,0,0,540,13637Z" transform="translate(0)"/></g></svg>