<svg xmlns="http://www.w3.org/2000/svg" width="73.001" height="43.41" viewBox="0 0 73.001 43.41"><defs><style>.a,.b{fill:none;stroke:#7a1761;stroke-linejoin:round;stroke-width:3px;}.b{stroke-linecap:round;}</style></defs><g transform="translate(-233.186 -7146.804)"><path class="a" d="M271.969,7188.715h17.175v-9.792c0-1.123-6.851-4.878-12.464-7.123v-4.451s2.206-.747,2.206-5.574c1.561,0,2.245-4.49.072-4.49,0-.475,1.719-2.937,1.051-5.612-1.123-4.49-12.348-4.49-13.471,0-4.727-.967-1.123,4.965-1.123,5.612-2.244,0-1.563,4.49,0,4.49,0,4.827,2.362,5.574,2.362,5.574v4.451c-5.613,2.245-12.464,6-12.464,7.123v9.792Z" transform="translate(-2.264 -0.001)"/><path class="b" d="M298.356,7189.51H310.82v-10.1c0-1.124-6.194-2.347-10.683-4.142v-3.561s2.825-.783,2.825-4.645c1.25,0,1.739-4.49,0-4.49,0-.38,1.82-2.4,1.123-4.49-1.123-3.367-10.1-3.367-11.225,0-3.783-.773-1.123,3.972-1.123,4.49-1.8,0-1.25,4.49,0,4.49a4.5,4.5,0,0,0,3.058,4.645v2.671" transform="translate(-6.134 -0.796)"/><path class="b" d="M247.15,7189.51H234.686v-10.1c0-1.124,6.194-2.347,10.683-4.142v-3.561s-2.825-.783-2.825-4.645c-1.25,0-1.739-4.49,0-4.49,0-.38-1.82-2.4-1.123-4.49,1.123-3.367,10.1-3.367,11.224,0,3.783-.773,1.123,3.972,1.123,4.49,1.8,0,1.25,4.49,0,4.49a4.5,4.5,0,0,1-3.058,4.645v2.671" transform="translate(0 -0.796)"/></g></svg>