<svg xmlns="http://www.w3.org/2000/svg" width="64.25" height="73" viewBox="0 0 64.25 73"><defs><style>.a,.b,.c{fill:none;stroke:#7a1761;stroke-width:3px;}.a{stroke-linecap:round;}.a,.b{stroke-miterlimit:10;}.c{stroke-linejoin:round;}</style></defs><g transform="translate(-603.5 -6783.5)"><g transform="translate(608.75 6785)"><path class="a" d="M665.5,6785H614.25c-3.481,0-6.25,1.519-6.25,5s2.769,5,6.25,5l51.25.108V6855H613.815c-3.481,0-5.815-2.5-5.815-6.25V6790" transform="translate(-608 -6785)"/><line class="a" x2="49.185" transform="translate(5.815 5)"/></g><line class="a" x2="7.554" transform="translate(605 6805)"/><line class="a" x2="7.5" transform="translate(605 6815)"/><line class="a" x2="7.5" transform="translate(605 6825)"/><line class="a" x2="7.5" transform="translate(605 6835)"/><line class="a" x2="7.5" transform="translate(605 6845)"/><g transform="translate(621.25 6807.5)"><path class="b" d="M639.468,6818.395v4.4l8,2.286a4.433,4.433,0,0,1,3.034,4.019v5.053H618V6829.1c0-2.447,2.341-3.543,4.007-4.019l8-2.286v-4.4" transform="translate(-618 -6799.152)"/><path class="b" d="M642.739,6813.312c0,5.7-4.235,10.312-9.456,10.312s-9.456-4.617-9.456-10.312S628.059,6803,633.282,6803,642.739,6807.618,642.739,6813.312Z" transform="translate(-616.544 -6803)"/><path class="c" d="M642.566,6810.182c-1.576,1.577-6.049,1.455-7.749-1.708-3.153,3.152-8.275,3.152-10.824,1.354" transform="translate(-616.502 -6801.632)"/></g></g></svg>