<svg xmlns="http://www.w3.org/2000/svg" width="74.163" height="55.864" viewBox="0 0 74.163 55.864"><defs><style>.a{fill:none;stroke:#7a1761;stroke-linecap:round;stroke-linejoin:round;stroke-width:3px;}</style></defs><g transform="translate(-13310.919 -10227.486)"><g transform="translate(13332.016 10243.531) rotate(-9)"><path class="a" d="M1103.619,13518.173h3.881v-3.792h-3.883a10.48,10.48,0,0,0-1.2-2.918l2.745-2.746-3.382-3.38-2.746,2.744a12.3,12.3,0,0,0-2.915-1.2V13503h-4.741v3.882a12.108,12.108,0,0,0-2.915,1.2l-2.746-2.744-3.383,3.38,2.746,2.747a12.924,12.924,0,0,0-1.2,2.917H1080v3.792h3.881a10.981,10.981,0,0,0,1.2,3.862l-2.746,2.747,3.383,3.381,2.745-2.745a30.961,30.961,0,0,0,2.916,1.2v3.88h4.741v-3.88a31.329,31.329,0,0,0,2.915-1.2l2.746,2.743,3.382-3.381-2.745-2.747A7.336,7.336,0,0,0,1103.619,13518.173Z" transform="translate(-1080 -13503)"/><circle class="a" cx="5.207" cy="5.207" r="5.207" transform="translate(8.331 8.755)"/></g><g transform="translate(13313 10229)"><path class="a" d="M361,11968.414l8.644,12.873,9.937-11.9" transform="translate(-361 -11947.148)"/><path class="a" d="M421.395,11981.665l-8.639-12.873-9.943,11.9" transform="translate(-351.395 -11947.061)"/><path class="a" d="M419.255,11968.874c2.587,13.671-7.137,27.08-20.271,30.184a26.349,26.349,0,0,1-24.592-6.894" transform="translate(-357.923 -11947.042)"/><path class="a" d="M368.169,11985.1c-4.073-15.14,6.158-29.914,20.323-33.263a26.35,26.35,0,0,1,25.817,8.19" transform="translate(-359.56 -11951.119)"/></g></g></svg>